<svg xmlns="http://www.w3.org/2000/svg" viewBox="0 0 56 16" aria-hidden="true">
  <path fill="#101820" d="M14.2 4.5c-2.4 0-4 1.6-4 3.9 0 2.3 1.6 3.9 4 3.9 1.2 0 2.2-.4 2.9-1.1l-1.2-1.1c-.5.5-1.2.8-1.9.8-1.2 0-2-.8-2.1-2.2h5.4c0-.2 0-.3 0-.5 0-2.3-1.5-3.7-4.1-3.7zm-2 3.2c.2-1.1 1-1.8 2-1.8s1.8.7 2 1.8H12.2z"/>
  <path fill="#101820" d="M18.5 4.7h1.6v7.4h-1.6V4.7zm8.2 0h-1.5l-3.2 4.6V4.7h-1.6v7.4h1.5l3.3-4.7v4.7h1.5V4.7zm5.8 0c-2.2 0-3.6 1.5-3.6 3.7s1.4 3.7 3.6 3.7c1.1 0 2-.4 2.6-1.1l-1.1-1.1c-.4.4-1 .7-1.6.7-.9 0-1.5-.6-1.5-1.6h4.5c0-.1 0-.2 0-.3 0-2.1-1.3-3.3-3.9-3.3zm-1.9 3c.1-.9.8-1.5 1.8-1.5s1.7.6 1.8 1.5h-3.6zM40.2 4.7h-2.8l-2.4 7.4h1.7l.4-1.3h2.5l.4 1.3h1.7L40.2 4.7zm-1.5 4.5.8-2.6.8 2.6h-1.6z"/>
  <path fill="#4A4AF4" d="M7.5 12.5c3.5-1.2 5.8-4.4 5.8-8.2H9.8c0 2.8-1.5 5.2-4 6.4l1.7 1.8z"/>
</svg>
