<svg xmlns="http://www.w3.org/2000/svg" viewBox="0 0 48 16" aria-hidden="true">
  <rect width="48" height="16" rx="2" fill="#006FCF"/>
  <path fill="#fff" d="M8.2 5.5 6 10.5H7.1l.4-1h2l.2 1h1.1L8.9 5.5H8.2zm-.3 2.3.7-1.8.7 1.8H7.9zm4.1-2.3-2.2 5h1.1l.4-1h2l.2 1h1.1l-2.2-5h-1.4zm-.4 3 .7-1.8.7 1.8h-1.4zM18 5.5h-2.6v5h2.5c1.2 0 2.1-.9 2.1-2.5 0-1.6-.8-2.5-2-2.5zm-1.5 4V6.5h1c.8 0 1.2.5 1.2 1.5s-.4 1.5-1.2 1.5h-1zm5.2-4h-1.4l2.2 5h1.3l2.2-5h-1.4l-1.3 3.4L21.7 5.5zm8.5 0h-3.5v5h1.1V9.2h2.1c1 0 1.6-.6 1.6-1.4 0-.8-.6-1.3-1.3-1.3zm-2.4 1.2h2.1v.8h-2.1V6.7zm5.5 3.8h3.5v-.9h-2.4V8.6h2.1v-.9h-2.1V6.4h2.4v-.9h-3.5v5z"/>
</svg>
