<svg xmlns="http://www.w3.org/2000/svg" viewBox="0 0 48 16" aria-hidden="true">
  <path fill="#1434CB" d="M19.5 1.2 17 14.8h-3.1L16.4 1.2h3.1zm9.8 8.5c0-3.3-4.6-3.5-4.6-5 0-.5.5-1 1.6-1.1.5 0 1.9-.1 3.5.7l.6-2.9c-.9-.3-2-.6-3.5-.6-3.7 0-6.3 2-6.3 4.8 0 2.1 1.9 3.3 3.3 4 1.5.8 2 1.3 2 2 0 1.1-1.2 1.6-2.3 1.6-2 0-3.1-.5-4-1l-.7 3.2c.9.4 2.5.8 4.2.8 3.9 0 6.5-1.9 6.5-5zm9.8 5.1h2.9l-2.5-13.6h-2.7c-.6 0-1.1.3-1.4.9l-4.9 12.7h3.3l.7-1.9h4.1l.4 1.9zm-3.6-4.6 1.7-4.6.9 4.6h-2.6zM15.1 1.2 11.2 14.8H8.1L7.2 9.4c-.8-3.1-1.6-4.3-3-5.2L7.5 1.2h3.2l5.2 0z"/>
</svg>
